<?xml version="1.0" standalone="no"?>
<!DOCTYPE svg PUBLIC "-//W3C//DTD SVG 20010904//EN"
 "http://www.w3.org/TR/2001/REC-SVG-20010904/DTD/svg10.dtd">
<svg version="1.0" xmlns="http://www.w3.org/2000/svg"
 width="828.000000pt" height="828.000000pt" viewBox="0 0 828.000000 828.000000"
 preserveAspectRatio="xMidYMid meet">
<metadata>
Created by potrace 1.14, written by Peter Selinger 2001-2017
</metadata>
<g transform="translate(0.000000,828.000000) scale(0.100000,-0.100000)"
fill="#000000" stroke="none">
<path d="M3785 5305 c-589 -61 -1140 -315 -1638 -753 -121 -107 -260 -253
-336 -355 l-44 -58 49 -51 c90 -92 298 -270 442 -377 521 -390 1071 -592 1682
-617 125 -5 336 5 450 22 305 44 536 105 805 211 440 173 928 476 1221 757
l73 71 -108 97 c-302 272 -581 480 -865 642 -572 329 -1167 470 -1731 411z
m305 -263 c0 -5 -190 -207 -421 -448 l-422 -439 117 -3 116 -3 0 -365 c0 -343
-1 -365 -17 -360 -10 2 -54 14 -98 26 -304 83 -659 262 -950 481 -115 86 -275
220 -275 230 0 12 209 208 300 281 465 371 959 572 1480 601 141 7 170 7 170
-1z m384 -38 c455 -88 901 -300 1345 -637 126 -95 261 -208 261 -216 -1 -9
-222 -170 -320 -234 -291 -188 -659 -360 -927 -435 l-73 -20 0 343 0 344 116
3 116 3 -421 438 c-232 241 -421 441 -421 444 0 11 199 -9 324 -33z m-204
-1388 l0 -243 -61 -7 c-34 -3 -102 -6 -150 -6 l-89 0 0 250 0 250 150 0 150 0
0 -244z"/>
</g>
</svg>
